<?xml version="1.0" standalone="no"?>
<!DOCTYPE svg PUBLIC "-//W3C//DTD SVG 20010904//EN"
 "http://www.w3.org/TR/2001/REC-SVG-20010904/DTD/svg10.dtd">
<svg version="1.0" xmlns="http://www.w3.org/2000/svg"
 width="297.000000pt" height="372.000000pt" viewBox="0 0 297.000000 372.000000"
 preserveAspectRatio="xMidYMid meet">

<g transform="translate(0.000000,372.000000) scale(0.100000,-0.100000)"
fill="#000000" stroke="none">
<path d="M1260 3630 c-19 -19 -20 -33 -20 -279 l0 -259 -45 -29 -44 -28 -1
-227 0 -226 -27 -33 -27 -32 36 24 c36 23 36 24 40 104 3 44 3 144 1 222 l-3
142 29 20 c16 12 32 21 35 21 3 0 6 -124 6 -275 0 -238 2 -275 15 -275 13 0
15 65 15 525 l0 525 25 0 25 0 0 -147 0 -147 31 -32 30 -31 -1 -276 c0 -278 6
-380 21 -342 4 11 8 158 8 326 l1 305 -30 29 -30 29 0 176 c0 159 -2 179 -18
193 -25 22 -48 21 -72 -3z m58 -31 c4 -19 -19 -31 -38 -19 -18 11 -4 42 17 38
10 -2 19 -10 21 -19z"/>
<path d="M1498 3639 c-24 -14 -23 -62 2 -84 17 -15 20 -31 20 -91 0 -67 -3
-76 -30 -107 l-30 -35 0 -336 c0 -185 4 -336 9 -336 15 0 21 109 21 387 -1
247 1 277 16 294 16 18 18 18 36 3 17 -16 18 -40 18 -358 1 -302 2 -339 15
-322 13 17 15 74 15 344 l0 323 -25 33 c-22 29 -25 43 -25 112 0 68 3 81 20
92 27 16 27 68 1 82 -24 12 -41 12 -63 -1z m60 -36 c4 -16 -22 -27 -43 -19
-22 8 -6 38 18 34 11 -2 22 -9 25 -15z"/>
<path d="M1737 3632 c-15 -16 -17 -45 -17 -194 l0 -175 -40 -32 -40 -32 0
-349 c0 -304 2 -350 15 -350 13 0 15 45 15 344 l0 344 40 32 40 32 0 149 0
149 25 0 25 0 2 -157 c1 -87 2 -315 3 -508 1 -390 1 -385 15 -385 6 0 10 98
10 275 0 151 4 275 8 275 5 0 18 -10 30 -23 21 -22 22 -31 22 -244 0 -202 2
-221 18 -225 16 -5 17 11 14 233 l-3 239 -44 30 -45 31 0 257 c0 217 -2 261
-16 280 -18 27 -55 29 -77 4z m61 -35 c3 -12 -3 -17 -22 -17 -25 0 -35 18 -19
34 12 12 38 2 41 -17z"/>
<path d="M1003 3590 c-27 -11 -32 -60 -8 -80 23 -19 20 -128 -5 -160 -18 -23
-20 -43 -20 -317 0 -169 -4 -293 -9 -295 -11 -4 -241 -227 -241 -233 0 -22 47
13 152 114 l123 118 5 299 c5 291 6 299 25 299 20 0 20 -8 23 -337 l2 -337
-82 -80 c-102 -101 -79 -107 31 -8 l81 72 0 346 c0 333 -1 347 -20 364 -16 14
-20 31 -20 79 0 50 4 63 20 74 27 16 26 57 -2 76 -25 18 -25 18 -55 6z m47
-40 c0 -27 -19 -35 -38 -17 -12 13 -13 19 -3 31 16 19 41 10 41 -14z"/>
<path d="M2012 3589 c-29 -11 -31 -63 -2 -81 29 -18 29 -122 0 -153 -18 -20
-20 -38 -22 -364 l-3 -342 70 -68 c213 -206 243 -232 248 -219 3 8 -54 71
-144 158 l-149 145 0 321 c0 258 3 324 14 339 12 16 16 17 30 6 14 -12 16 -49
16 -306 l0 -293 118 -115 c140 -138 172 -164 172 -144 0 8 -58 72 -130 142
l-129 128 -3 293 c-3 288 -3 293 -25 316 -32 33 -32 126 -2 167 17 23 19 33
10 49 -13 24 -39 32 -69 21z m45 -35 c8 -22 -18 -37 -36 -20 -7 8 -10 19 -7
25 10 16 36 13 43 -5z"/>
<path d="M752 3064 c-12 -8 -22 -25 -22 -37 -1 -15 -35 -55 -106 -121 l-105
-99 -78 74 c-43 41 -88 94 -102 119 -27 50 -64 64 -93 35 -37 -38 -4 -94 48
-81 19 5 41 -12 119 -86 l97 -91 0 -144 c0 -111 3 -144 13 -141 9 3 13 45 15
150 l3 145 100 98 c82 79 104 96 123 91 52 -13 87 52 48 87 -23 21 -32 21 -60
1z m51 -28 c8 -20 -20 -43 -35 -28 -14 14 -3 42 16 42 7 0 16 -6 19 -14z
m-497 -27 c8 -14 -21 -43 -35 -35 -6 4 -11 16 -11 27 0 21 34 27 46 8z"/>
<path d="M2248 3069 c-26 -15 -24 -75 2 -89 12 -6 29 -8 40 -5 20 6 87 -49
183 -151 l47 -51 0 -172 c0 -94 4 -171 8 -171 5 0 12 80 15 177 l6 177 92 87
c83 80 94 87 123 82 55 -9 87 44 50 82 -27 26 -67 15 -86 -25 -10 -19 -57 -72
-104 -117 l-87 -81 -103 96 c-57 53 -104 105 -104 115 0 20 -34 57 -52 57 -7
0 -21 -5 -30 -11z m50 -42 c4 -20 -25 -34 -40 -19 -15 15 -1 44 19 40 10 -2
19 -11 21 -21z m497 -13 c12 -12 13 -19 4 -30 -6 -8 -18 -14 -26 -14 -19 0
-28 27 -13 45 15 19 15 19 35 -1z"/>
<path d="M786 2868 c-9 -12 -16 -32 -16 -43 0 -12 -25 -43 -60 -76 -62 -57
-71 -82 -54 -146 11 -41 24 -24 24 31 0 54 1 55 58 105 36 32 66 51 83 51 32
0 49 17 49 50 0 51 -55 69 -84 28z m60 -19 c8 -14 -21 -43 -35 -35 -6 4 -11
16 -11 27 0 21 34 27 46 8z"/>
<path d="M2206 2877 c-12 -9 -17 -23 -14 -47 3 -32 6 -35 38 -38 24 -3 51 -18
92 -54 57 -49 58 -51 58 -104 0 -55 13 -72 24 -31 3 12 6 38 6 58 0 33 -7 43
-66 94 -43 38 -63 63 -59 73 8 20 -21 62 -43 62 -10 0 -26 -6 -36 -13z m49
-27 c4 -6 1 -18 -6 -26 -11 -13 -14 -13 -27 0 -8 8 -11 19 -8 25 9 14 33 14
41 1z"/>
<path d="M148 2785 c-8 -19 -8 -31 1 -51 10 -24 16 -26 49 -20 36 5 40 2 115
-70 66 -65 77 -81 77 -110 0 -45 16 -44 24 2 9 45 -3 64 -94 144 -39 35 -73
74 -76 87 -12 47 -77 59 -96 18z m67 -25 c0 -8 -10 -16 -22 -18 -18 -3 -23 2
-23 18 0 16 5 21 23 18 12 -2 22 -10 22 -18z"/>
<path d="M2830 2790 c-11 -11 -20 -26 -20 -32 0 -7 -38 -50 -85 -94 l-85 -81
0 -76 c0 -42 5 -79 10 -82 6 -4 10 21 10 67 l0 73 82 77 c73 67 87 77 117 75
28 -2 38 3 50 25 14 24 14 28 -3 47 -24 26 -50 27 -76 1z m58 -27 c5 -17 -26
-29 -40 -15 -6 6 -7 15 -3 22 9 14 37 9 43 -7z"/>
<path d="M1460 2525 c0 -44 3 -53 15 -49 16 7 18 24 9 73 -10 50 -24 36 -24
-24z"/>
<path d="M1560 2531 c0 -28 5 -51 10 -51 6 0 10 20 10 44 0 25 -4 48 -10 51
-6 4 -10 -13 -10 -44z"/>
<path d="M292 2430 c-12 -19 -10 -20 39 -20 43 0 50 3 45 16 -3 9 -6 18 -6 20
0 2 -15 4 -33 4 -21 0 -36 -7 -45 -20z"/>
<path d="M1983 2431 c-11 -18 -9 -20 25 -23 l37 -3 3 -122 3 -123 -33 -1 c-18
-1 -436 -2 -929 -3 l-896 -2 -48 -42 c-26 -23 -54 -42 -61 -42 -8 0 -14 -4
-14 -9 0 -4 28 -14 62 -21 113 -22 177 -70 199 -152 13 -48 13 -48 -73 -338
-69 -234 -74 -273 -39 -301 21 -17 42 -19 237 -19 118 0 214 2 214 5 0 2 -10
23 -21 45 -26 49 -24 68 27 241 61 212 69 219 260 219 188 1 236 29 264 155 6
29 22 62 37 78 l27 27 -27 0 c-41 0 -87 -47 -93 -95 -10 -75 -15 -86 -47 -105
-27 -17 -50 -20 -158 -20 -154 0 -159 3 -159 104 0 64 2 70 34 102 l34 34 221
0 c189 0 221 2 221 15 0 8 13 29 29 47 l29 33 149 2 148 1 -135 -12 c-74 -6
-145 -17 -157 -24 -20 -11 -43 -59 -32 -65 2 -1 169 -1 372 1 l367 2 0 125 0
125 29 0 c31 0 41 14 41 61 0 27 -3 29 -35 29 -35 0 -35 0 -35 45 0 44 -1 45
-33 45 -21 0 -36 -7 -44 -19z m-1284 -334 l42 -12 -50 -37 c-61 -46 -96 -104
-127 -211 -32 -107 -31 -110 9 -102 24 5 28 4 17 -4 -8 -6 -25 -11 -38 -11
-27 0 -23 9 -98 -237 l-59 -193 -43 0 c-54 0 -100 23 -108 55 -6 22 24 135 96
370 35 115 35 148 -2 274 -12 41 -11 44 11 62 18 15 39 19 95 18 39 0 65 -3
59 -6 -21 -8 -16 -61 7 -73 25 -13 59 3 61 28 5 65 -10 71 -160 66 -90 -3
-119 -1 -101 6 74 29 299 34 389 7z m335 4 c10 -16 -5 -41 -24 -41 -23 0 -34
16 -26 35 6 16 42 20 50 6z m-864 -26 c0 -8 -7 -15 -15 -15 -8 0 -15 7 -15 15
0 8 7 15 15 15 8 0 15 -7 15 -15z m378 -48 c2 -10 -3 -17 -11 -17 -16 0 -30
24 -19 34 10 10 27 1 30 -17z m640 -130 c2 -12 -3 -17 -17 -17 -12 0 -21 6
-21 13 0 31 32 34 38 4z m-463 -97 c0 -18 -6 -26 -23 -28 -27 -4 -40 22 -22
44 19 22 45 13 45 -16z"/>
<path d="M230 2385 c0 -8 -12 -17 -27 -21 -61 -13 -84 -26 -81 -47 2 -14 16
-24 43 -32 31 -10 36 -14 23 -20 -20 -8 -25 -49 -6 -43 13 5 66 131 67 161 1
9 -3 17 -9 17 -5 0 -10 -7 -10 -15z m-20 -55 c0 -14 -20 -22 -37 -16 -12 5
-13 9 -3 21 11 14 40 10 40 -5z"/>
<path d="M920 2357 c0 -58 20 -67 157 -67 135 0 153 8 153 68 l0 32 -155 0
-155 0 0 -33z"/>
<path d="M611 2375 c7 -7 219 -8 226 -1 4 3 -47 6 -112 6 -65 0 -116 -2 -114
-5z"/>
<path d="M1260 2373 c0 -5 91 -7 202 -5 379 4 414 8 106 10 -170 1 -308 -1
-308 -5z"/>
<path d="M1272 2310 c0 -19 2 -27 5 -17 2 9 2 25 0 35 -3 9 -5 1 -5 -18z"/>
<path d="M386 2321 c-11 -17 -45 -135 -41 -140 3 -2 7 2 9 10 2 8 13 42 25 77
18 57 21 76 7 53z"/>
<path d="M415 2319 c-25 -69 -44 -132 -37 -124 13 15 53 127 47 133 -2 3 -7
-1 -10 -9z"/>
<path d="M450 2328 c0 -3 -12 -37 -26 -74 -14 -38 -21 -64 -16 -59 14 14 54
127 47 133 -3 3 -5 3 -5 0z"/>
<path d="M480 2327 c0 -4 -11 -37 -25 -74 -15 -38 -21 -63 -16 -58 14 14 53
127 46 133 -3 3 -5 2 -5 -1z"/>
<path d="M488 2261 c-14 -39 -22 -68 -18 -66 11 7 54 125 48 131 -3 2 -16 -27
-30 -65z"/>
<path d="M522 2263 c-13 -36 -21 -67 -19 -70 3 -2 15 26 27 62 12 36 20 68 18
70 -2 2 -14 -26 -26 -62z"/>
<path d="M571 2314 c0 -11 3 -14 6 -6 3 7 2 16 -1 19 -3 4 -6 -2 -5 -13z"/>
<path d="M592 2297 c-17 -47 -14 -59 4 -18 8 19 13 39 12 43 -2 5 -9 -6 -16
-25z"/>
<path d="M332 2253 c-13 -36 -21 -67 -19 -69 2 -2 14 26 26 62 13 35 22 67 20
69 -3 2 -15 -26 -27 -62z"/>
<path d="M546 2244 c-21 -62 -14 -68 9 -9 9 26 15 48 12 51 -3 3 -12 -16 -21
-42z"/>
<path d="M842 2248 c23 -23 36 -28 76 -27 l47 2 -52 6 c-29 4 -62 15 -75 26
-13 11 -11 8 4 -7z"/>
<path d="M2418 2273 c-10 -2 -18 -11 -18 -19 0 -19 -19 -18 -26 1 -8 21 -21
19 -29 -5 -7 -23 -25 -27 -25 -5 0 8 -7 15 -15 15 -8 0 -15 -9 -15 -20 0 -23
-18 -27 -26 -6 -9 23 -34 7 -34 -21 l0 -24 83 8 c105 10 408 10 510 0 l77 -8
0 25 c0 13 -7 26 -15 30 -9 3 -15 0 -15 -9 0 -22 -21 -18 -27 5 -6 24 -21 26
-29 5 -8 -21 -21 -19 -27 5 -6 23 -27 27 -27 5 0 -8 -7 -15 -15 -15 -8 0 -15
6 -15 14 0 8 -7 17 -16 20 -18 7 -270 6 -296 -1z"/>
<path d="M1241 2250 c-13 -11 -19 -20 -14 -20 6 0 18 9 28 20 23 25 17 25 -14
0z"/>
<path d="M1028 2223 c34 -2 90 -2 125 0 34 2 6 3 -63 3 -69 0 -97 -1 -62 -3z"/>
<path d="M2385 2180 c-119 -12 -155 -19 -155 -32 0 -6 14 -8 38 -4 78 13 459
18 542 7 79 -10 101 -9 87 5 -22 22 -365 38 -512 24z"/>
<path d="M2293 2108 c-45 -7 -63 -14 -63 -25 0 -9 6 -13 14 -10 8 3 61 11 118
18 99 11 408 7 501 -7 43 -7 51 10 10 21 -45 11 -513 14 -580 3z"/>
<path d="M2395 2054 c-167 -25 -165 -24 -165 -55 0 -27 2 -29 28 -22 15 5 168
8 340 8 307 0 313 0 310 20 -5 33 -82 46 -293 50 -104 2 -203 1 -220 -1z"/>
<path d="M896 1948 c-11 -43 -6 -86 14 -109 l20 -24 -11 33 c-10 29 -9 62 2
101 2 7 -1 15 -7 18 -6 2 -14 -6 -18 -19z"/>
<path d="M2332 1961 c-57 -5 -105 -10 -107 -12 -2 -2 151 -4 340 -4 189 0 334
3 323 8 -31 11 -437 17 -556 8z"/>
<path d="M1337 1946 c-16 -12 -16 -15 -1 -27 8 -7 27 -35 41 -62 38 -76 45
-194 41 -700 -3 -450 -3 -452 -27 -504 -22 -50 -77 -110 -134 -148 l-27 -17 0
-162 0 -162 53 -52 c29 -29 56 -52 60 -52 4 0 7 59 7 131 0 151 -13 146 108
46 l71 -59 85 71 c47 39 87 71 90 71 3 0 7 -59 8 -130 l3 -130 58 53 57 53 0
161 0 160 -40 28 c-56 39 -109 99 -131 151 -19 41 -20 69 -17 581 l3 538 23
52 c13 28 34 61 47 73 48 45 29 50 -174 50 -139 -1 -190 -4 -204 -14z m118
-117 c12 -52 15 -155 15 -559 0 -272 5 -513 10 -534 4 -21 15 -45 23 -53 19
-19 53 -9 69 20 8 15 12 175 14 552 2 418 6 543 17 593 17 71 33 99 22 37 -3
-22 -10 -296 -13 -610 -4 -314 -11 -577 -15 -587 -5 -9 -22 -22 -38 -28 -37
-16 -82 1 -98 36 -8 17 -11 170 -11 507 0 367 -4 508 -15 592 -8 61 -15 115
-15 120 1 23 21 -27 35 -86z m180 -1238 c28 -16 64 -43 80 -61 l30 -32 -70 41
c-38 23 -85 46 -104 51 -49 13 -115 -4 -188 -50 -73 -45 -83 -38 -20 14 91 75
185 87 272 37z m-55 -61 c42 -42 8 -120 -52 -120 -33 0 -78 39 -78 68 0 11 9
31 21 46 26 33 79 36 109 6z"/>
<path d="M2405 1924 c-27 -2 -78 -6 -112 -10 l-63 -6 0 -139 c0 -76 4 -139 9
-139 4 0 22 5 39 11 23 8 32 19 39 47 8 33 13 38 51 46 39 9 42 12 42 44 0 48
28 101 64 123 43 26 140 26 183 -1 37 -22 73 -86 73 -130 0 -25 4 -30 23 -30
36 0 67 -27 67 -59 0 -24 6 -30 39 -39 21 -7 41 -12 45 -12 3 0 6 62 6 139 l0
138 -46 7 c-58 7 -392 15 -459 10z"/>
<path d="M2523 1899 c-102 -30 -122 -192 -31 -249 42 -27 127 -23 159 6 51 46
64 114 33 179 -27 58 -94 84 -161 64z m108 -68 c92 -92 -40 -214 -135 -126
-58 53 -12 155 69 155 27 0 44 -8 66 -29z"/>
<path d="M2500 1513 c0 -129 -32 -196 -101 -210 l-30 -6 3 -66 c3 -73 19 -84
31 -22 17 86 116 146 199 122 84 -26 135 -101 125 -187 -4 -38 -2 -44 14 -44
17 0 19 9 19 99 l0 99 -29 7 c-69 15 -101 83 -101 216 l0 84 -65 1 -65 0 0
-93z"/>
<path d="M1051 1395 c-23 -58 -41 -108 -41 -110 0 -3 6 -5 14 -5 8 0 17 11 20
25 6 23 11 25 66 25 55 0 60 -2 66 -25 3 -14 12 -25 19 -25 11 0 8 16 -9 68
-67 193 -77 197 -135 47z m82 26 c9 -27 17 -51 17 -55 0 -3 -18 -6 -40 -6 -22
0 -40 3 -40 8 0 14 34 102 40 102 3 0 13 -22 23 -49z"/>
<path d="M1850 1390 c0 -91 3 -110 15 -110 11 0 15 12 15 45 l0 45 40 0 c48 0
80 27 80 68 0 44 -27 62 -93 62 l-57 0 0 -110z m108 78 c33 -33 2 -78 -52 -78
-24 0 -26 3 -26 45 0 44 1 45 33 45 18 0 38 -5 45 -12z"/>
<path d="M1250 1295 c0 -8 7 -15 15 -15 8 0 15 7 15 15 0 8 -7 15 -15 15 -8 0
-15 -7 -15 -15z"/>
<path d="M2000 1295 c0 -8 7 -15 15 -15 8 0 15 7 15 15 0 8 -7 15 -15 15 -8 0
-15 -7 -15 -15z"/>
<path d="M2493 1291 c-37 -17 -43 -26 -59 -74 -16 -53 -16 -58 1 -102 41 -109
178 -123 242 -26 47 70 20 177 -52 207 -46 19 -81 17 -132 -5z m138 -50 c22
-23 29 -39 29 -69 0 -54 -7 -70 -41 -87 -113 -59 -214 78 -117 160 42 35 91
34 129 -4z"/>
<path d="M300 1185 c0 -13 27 -15 180 -15 153 0 180 2 180 15 0 13 -27 15
-180 15 -153 0 -180 -2 -180 -15z"/>
<path d="M2187 1145 c-89 -81 -214 -157 -315 -190 -48 -15 -73 -37 -60 -51 3
-2 43 10 88 27 136 52 372 222 344 248 -5 6 -27 -7 -57 -34z"/>
<path d="M807 1173 c-14 -13 -5 -23 71 -81 111 -85 165 -116 271 -156 104 -40
111 -42 111 -23 0 8 -32 26 -72 42 -40 15 -100 41 -133 58 -61 30 -189 120
-214 150 -14 18 -24 21 -34 10z"/>
<path d="M2225 1084 c-104 -93 -279 -193 -368 -209 -21 -4 -42 -16 -48 -26
-13 -25 -10 -25 109 15 67 23 131 54 188 91 125 81 222 177 176 175 -4 -1 -29
-21 -57 -46z"/>
<path d="M765 1109 c-9 -14 17 -41 95 -99 95 -70 185 -117 291 -150 109 -34
109 -34 109 -16 0 9 -27 22 -71 36 -136 41 -238 97 -356 197 -56 47 -59 48
-68 32z"/>
<path d="M701 1026 c-9 -11 0 -23 44 -61 107 -91 284 -183 435 -226 78 -23 80
-23 80 -5 0 8 -37 25 -97 44 -169 54 -307 129 -404 219 -38 36 -48 41 -58 29z"/>
<path d="M2264 977 c-112 -98 -235 -159 -441 -223 -13 -3 -19 -34 -7 -34 33 0
172 53 268 103 113 59 274 179 269 202 -4 20 -21 11 -89 -48z"/>
<path d="M2349 954 c-47 -48 -196 -147 -294 -194 -44 -22 -117 -49 -162 -62
-47 -13 -83 -28 -83 -35 0 -16 0 -16 92 7 92 23 247 96 326 154 31 23 68 49
82 58 14 9 42 32 64 50 32 28 36 36 24 46 -12 9 -21 5 -49 -24z"/>
<path d="M655 969 c-11 -16 27 -51 134 -123 121 -81 263 -150 367 -176 91 -23
107 -24 102 -9 -2 6 -56 28 -120 48 -156 51 -286 121 -403 217 -65 52 -72 57
-80 43z"/>
</g>
</svg>
